Coordinates
version=1
nRows=60
nColumns=12
inDegrees=yes

Units are S.I. units (second, meters, Newtons, ...)
Angles are in degrees

endheader
time	SC_y	SC_z	SC_x	AC_y	AC_z	AC_x	GH_y	GH_z	GH_yy	EL_x	PS_y
       0.0              -27.86          1.242          55.16          35.91         -7.182          15.21         -81.76          61.22         -96.57          77.35           27.8
   0.01827              -27.87          1.243          55.16          35.91         -7.181           15.2         -81.72          61.21         -96.55          77.34          27.81
   0.03654              -27.87          1.245          55.16          35.91          -7.18           15.2         -81.68          61.21         -96.53          77.33          27.82
   0.05481              -27.87          1.246          55.16          35.91         -7.179           15.2         -81.64          61.21         -96.52          77.32          27.84
   0.07308              -27.88          1.247          55.15          35.91         -7.177          15.19         -81.59           61.2         -96.49          77.31          27.85
   0.09135              -27.88          1.249          55.15          35.91         -7.176          15.19         -81.54           61.2         -96.47           77.3          27.86
    0.1096              -27.89           1.25          55.15          35.91         -7.175          15.18         -81.49          61.19         -96.45          77.28          27.87
    0.1279              -27.89          1.252          55.15          35.91         -7.173          15.18         -81.44          61.19         -96.42          77.27          27.89
    0.1462               -27.9          1.253          55.15          35.91         -7.171          15.18         -81.38          61.18          -96.4          77.26           27.9
    0.1644               -27.9          1.255          55.14          35.91          -7.17          15.17         -81.31          61.18         -96.37          77.24          27.92
    0.1827              -27.91          1.257          55.14          35.91         -7.168          15.17         -81.25          61.17         -96.34          77.22          27.94
     0.201              -27.92          1.259          55.14          35.91         -7.166          15.16         -81.17          61.16          -96.3          77.21          27.96
    0.2192              -27.93          1.262          55.13          35.91         -7.164          15.15         -81.09          61.15         -96.27          77.19          27.98
    0.2375              -27.93          1.264          55.13          35.91         -7.161          15.15         -81.01          61.15         -96.23          77.17           28.0
    0.2558              -27.94          1.267          55.13          35.91         -7.159          15.14         -80.91          61.14         -96.18          77.15          28.03
     0.274              -27.95           1.27          55.12          35.91         -7.156          15.13         -80.81          61.13         -96.14          77.12          28.05
    0.2923              -27.96          1.273          55.12          35.91         -7.153          15.12          -80.7          61.12         -96.09           77.1          28.08
    0.3106              -27.97          1.276          55.11          35.91          -7.15          15.12         -80.58          61.11         -96.03          77.07          28.11
    0.3288              -27.98           1.28          55.11          35.91         -7.146          15.11         -80.45          61.09         -95.97          77.04          28.15
    0.3471               -28.0          1.284           55.1          35.91         -7.142          15.09         -80.31          61.08         -95.91           77.0          28.18
    0.3654              -28.01          1.289          55.09          35.91         -7.138          15.08         -80.16          61.07         -95.84          76.97          28.22
    0.3837              -28.03          1.294          55.09          35.91         -7.133          15.07         -79.98          61.05         -95.76          76.92          28.27
    0.4019              -28.04            1.3          55.08          35.91         -7.128          15.05         -79.79          61.03         -95.67          76.88          28.32
    0.4202              -28.06          1.306          55.07          35.91         -7.122          15.04         -79.58          61.01         -95.57          76.83          28.37
    0.4385              -28.09          1.312          55.06          35.91         -7.116          15.02         -79.35          60.99         -95.47          76.77          28.44
    0.4567              -28.11           1.32          55.05          35.91         -7.109           15.0         -79.09          60.96         -95.35          76.71           28.5
     0.475              -28.14          1.329          55.04          35.91         -7.101          14.98         -78.79          60.94         -95.21          76.64          28.58
    0.4933              -28.17          1.338          55.02          35.91         -7.091          14.95         -78.46          60.91         -95.06          76.56          28.67
    0.5115               -28.2          1.349          55.01          35.91         -7.081          14.92         -78.09          60.87         -94.89          76.47          28.77
    0.5298              -28.24          1.361          54.99          35.91          -7.07          14.89         -77.67          60.83          -94.7          76.37          28.88
    0.5481              -28.28          1.375          54.97           35.9         -7.056          14.86         -77.19          60.78         -94.48          76.26           29.0
    0.5664              -28.33          1.391          54.95           35.9         -7.041          14.81         -76.63          60.73         -94.22          76.13          29.15
    0.5846              -28.39           1.41          54.92           35.9         -7.024          14.76         -75.99          60.67         -93.93          75.97          29.32
    0.6029              -28.46          1.432          54.89           35.9         -7.003          14.71         -75.25           60.6         -93.59           75.8          29.51
    0.6212              -28.54          1.457          54.85           35.9         -6.979          14.64         -74.38          60.52         -93.19          75.59          29.74
    0.6394              -28.64          1.487          54.81           35.9         -6.951          14.56         -73.36          60.42         -92.73          75.35          30.01
    0.6577              -28.75          1.522          54.76           35.9         -6.918          14.47         -72.14          60.31         -92.17          75.06          30.33
     0.676              -28.88          1.564          54.69           35.9         -6.878          14.36         -70.68          60.17          -91.5          74.71          30.71
    0.6942              -29.04          1.616          54.62           35.9         -6.829          14.22         -68.91           60.0         -90.69          74.29          31.17
    0.7125              -29.24          1.679          54.53           35.9          -6.77          14.06         -66.76           59.8         -89.71          73.78          31.74
    0.7308              -29.49          1.756          54.42          35.89         -6.697          13.85         -64.09          59.54         -88.49          73.14          32.44
     0.749              -29.79          1.853          54.28          35.89         -6.606           13.6         -60.77          59.23         -86.97          72.35          33.31
    0.7673              -30.18          1.974           54.1          35.89         -6.491          13.28         -56.59          58.83         -85.06          71.36          34.41
    0.7856              -30.67          2.129          53.88          35.88         -6.345          12.87         -51.27          58.33         -82.62          70.09           35.8
    0.8039              -31.29          2.327          53.59          35.88         -6.158          12.35         -44.47          57.69         -79.51          68.47          37.59
    0.8221              -32.09           2.58          53.22          35.87         -5.918          11.69         -35.74          56.86         -75.51          66.39          39.88
    0.8404              -33.12          2.905          52.75          35.86         -5.612          10.83         -24.58           55.8         -70.41          63.73           42.8
    0.8587              -34.41          3.313          52.16          35.85         -5.226          9.762         -10.56          54.47         -63.99           60.4          46.48
    0.8769              -35.98           3.81          51.44          35.84         -4.757          8.455          6.536          52.85         -56.17          56.33          50.97
    0.8952               -37.8          4.386          50.61          35.82         -4.213          6.941          26.35          50.98         -47.11          51.61          56.17
    0.9135              -39.77          5.009           49.7          35.81         -3.623          5.301           47.8          48.95          -37.3           46.5          61.79
    0.9317              -41.74          5.633           48.8          35.79         -3.034          3.661          69.25          46.91         -27.48          41.39          67.42
      0.95              -43.56          6.209          47.96          35.77          -2.49          2.146          89.06          45.04         -18.42          36.68          72.62
    0.9683              -45.13          6.706          47.24          35.76         -2.021         0.8398          106.2          43.42          -10.6          32.61           77.1
    0.9865              -46.42          7.114          46.65          35.75         -1.635        -0.2324          120.2          42.09          -4.18          29.27          80.78
     1.005              -47.45          7.438          46.18          35.74         -1.329         -1.085          131.3          41.03         0.9237          26.61          83.71
     1.023              -48.25          7.692          45.81          35.73         -1.089         -1.753          140.1           40.2          4.919          24.53           86.0
     1.041              -48.88           7.89          45.53          35.73        -0.9021         -2.273          146.9          39.56          8.032          22.91          87.79
      1.06              -49.37          8.045           45.3          35.73        -0.7561         -2.679          152.2          39.06          10.46          21.65          89.18
     1.078              -49.75          8.166          45.13          35.72        -0.6412         -2.999          156.4          38.66          12.38          20.65          90.28
